<svg width="141" height="23" viewBox="0 0 141 23" fill="none" xmlns="http://www.w3.org/2000/svg">
<g clip-path="url(#clip0_623_859)">
<path d="M0.6 10.4996C1.1 7.89961 3.4 6.09961 6.6 6.09961C10.3 6.09961 13.2 7.69961 13.2 12.6996V21.9996H10L9.6 19.9996C8.5 21.3996 7 22.2996 4.8 22.2996C2.1 22.2996 0 20.5996 0 17.4996C0 14.3996 2.8 12.3996 6.7 12.3996H9.3V11.6996C9.3 9.89961 8 9.39961 6.5 9.39961C5.4 9.39961 4.3 9.79961 3.8 11.1996L0.6 10.4996ZM5.7 18.9996C7.5 18.9996 9.3 17.7996 9.3 15.7996V15.4996H6.8C5.1 15.3996 4.1 16.0996 4.1 17.4996C4.1 18.1996 4.7 18.9996 5.7 18.9996Z" fill="white"/>
<path d="M75.9999 10.4996C76.4999 7.89961 78.7999 6.09961 81.9999 6.09961C85.6999 6.09961 88.5999 7.69961 88.5999 12.6996V21.9996H85.3999L84.9999 19.9996C83.8999 21.3996 82.3999 22.2996 80.1999 22.2996C77.4999 22.2996 75.3999 20.5996 75.3999 17.4996C75.3999 14.3996 78.1999 12.3996 82.0999 12.3996H84.6999V11.6996C84.6999 9.89961 83.3999 9.39961 81.8999 9.39961C80.7999 9.39961 79.6999 9.79961 79.1999 11.1996L75.9999 10.4996ZM81.0999 18.9996C82.8999 18.9996 84.6999 17.7996 84.6999 15.7996V15.4996H82.0999C80.3999 15.4996 79.3999 16.0996 79.3999 17.4996C79.4999 18.1996 80.0999 18.9996 81.0999 18.9996Z" fill="white"/>
<path d="M92.1001 22.0996V6.29961H96.0001V8.89961C97.1001 6.99961 98.9001 6.09961 100.6 6.09961C101.3 6.09961 101.9 6.19961 102.5 6.39961L101.8 9.99961C101.3 9.69961 100.8 9.49961 100.2 9.49961C97.9001 9.49961 96.0001 11.3996 96.0001 16.3996V21.9996L92.1001 22.0996Z" fill="white"/>
<path d="M110.8 6.1C112.4 6.1 113.9 6.9 114.6 7.8V0H118.5V22.1H114.6V20.5C114.1 21.3 112.7 22.4 110.8 22.4C106.1 22.4 103.7 19.1 103.7 14.3C103.7 9.5 106.1 6.1 110.8 6.1ZM111.4 19C113.4 19 115 17.3 115 14.2C115 11.1 113.4 9.4 111.4 9.4C109.4 9.4 107.8 11.1 107.8 14.2C107.8 17.3 109.4 19 111.4 19Z" fill="white"/>
<path d="M132.5 8.60039L130.2 10.7004C129.5 9.70039 128.4 9.30039 127.6 9.30039C126.8 9.30039 126.1 9.80039 126.1 10.6004C126.1 11.3004 126.7 11.8004 127.6 12.1004C129.8 12.9004 133.3 13.6004 133.3 16.9004C133.3 19.8004 131.1 22.1004 127.7 22.1004C124.4 22.1004 122.2 19.8004 121.5 17.9004L124.6 16.2004C125.2 17.7004 126.2 18.8004 127.8 18.8004C129 18.8004 129.8 18.2004 129.8 17.1004C129.8 15.8004 127.8 15.5004 125.9 14.7004C124.2 14.0004 122.7 12.9004 122.7 10.5004C122.7 8.10039 124.7 5.90039 127.7 5.90039C129.7 6.00039 131.6 7.10039 132.5 8.60039Z" fill="white"/>
<path d="M51.9 6.2998L49.1 17.1998L46.4 6.2998H42.8L40.2 17.1998L38 10.8998L37.7 11.5998L36.5 15.6998L38.5 22.0998H41.9L44.6 11.8998L47.3 22.0998H50.8L55.8 6.2998H51.9Z" fill="white"/>
<path d="M70.6001 6.2998L67.8001 17.1998L65.1001 6.2998H61.5001L58.9001 17.1998L56.7001 10.8998L56.4001 11.5998L55.1001 15.6998L57.2001 22.0998H60.6001L63.3001 11.8998L66.0001 22.0998H69.4001L74.5001 6.2998H70.6001Z" fill="white"/>
<path d="M37.0999 6.2998L32.0999 21.9998H28.6999L25.9999 11.8998L23.2999 22.0998H19.8999L14.8999 6.3998H18.7999L21.5999 17.1998L24.2999 6.3998H27.8999L30.5999 17.1998L33.3999 6.3998L37.0999 6.2998Z" fill="white"/>
<path d="M138.4 17C139.9 17 141 18.1 141 19.6C141 21.1 139.9 22.2 138.4 22.2C136.9 22.2 135.8 21.1 135.8 19.6C135.8 18.1 136.9 17 138.4 17Z" fill="white"/>
</g>
<defs>
<clipPath id="clip0_623_859">
<rect width="141" height="22.3" fill="white"/>
</clipPath>
</defs>
</svg>
