<svg width="164" height="25" viewBox="0 0 164 25" fill="none" xmlns="http://www.w3.org/2000/svg">
<g clip-path="url(#clip0_623_869)">
<path d="M16.2198 16.0396L8.10989 8.01978L16.2198 0H8.10989L0 8.01978L4.05494 12.0747L8.10989 16.0396L12.1648 20.0044L16.2198 16.0396Z" fill="white"/>
<path d="M21.9869 12.0745L17.9319 8.01952L13.877 4.05469L9.91213 8.01952L17.9319 16.0393L9.82202 24.0591H17.9319L21.9869 20.0942L26.0418 16.0393L21.9869 12.0745Z" fill="white"/>
<path d="M36.1341 8.01908C34.9627 8.01908 33.9715 8.37952 33.2506 9.19051C32.5297 10.0015 32.1693 11.0828 32.1693 12.5246C32.1693 13.9663 32.5297 15.0477 33.1605 15.8586C33.8814 16.6696 34.7825 17.0301 36.044 17.0301C36.855 17.0301 37.666 16.8499 38.6572 16.5795V17.751C37.8462 18.0213 36.9451 18.2015 35.8638 18.2015C34.2418 18.2015 32.9803 17.751 32.0792 16.7597C31.1781 15.7685 30.7275 14.3268 30.7275 12.5246C30.7275 11.3532 30.9078 10.3619 31.3583 9.55095C31.8089 8.73996 32.4396 8.01908 33.1605 7.56854C33.8814 7.11799 34.8726 6.84766 36.044 6.84766C37.2155 6.84766 38.2067 7.02788 39.1078 7.47843L38.5671 8.55974C37.8462 8.28941 37.0352 8.01908 36.1341 8.01908Z" fill="white"/>
<path d="M47.398 15.138C47.398 16.1292 47.0375 16.8501 46.3166 17.3908C45.5958 17.9314 44.6947 18.2018 43.4331 18.2018C42.0815 18.2018 41.0903 18.0215 40.3694 17.6611V16.3996C40.8199 16.5798 41.3606 16.76 41.8111 16.8501C42.2617 16.9402 42.8925 17.0303 43.4331 17.0303C44.3342 17.0303 44.965 16.8501 45.3254 16.5798C45.776 16.2194 45.9562 15.7688 45.9562 15.2281C45.9562 14.8677 45.8661 14.5073 45.6859 14.327C45.5056 14.0567 45.2353 13.8765 44.8749 13.6062C44.5144 13.4259 43.9738 13.1556 43.2529 12.8853C42.2617 12.5248 41.4507 12.0743 41.0903 11.5336C40.6397 10.993 40.4595 10.3622 40.4595 9.55122C40.4595 8.74023 40.8199 8.01935 41.4507 7.47869C42.0815 6.93803 42.9826 6.75781 43.9738 6.75781C45.0551 6.75781 46.0463 6.93803 47.0375 7.38858L46.6771 8.4699C45.776 8.10946 44.8749 7.92924 43.9738 7.92924C43.2529 7.92924 42.8024 8.10946 42.3518 8.37979C41.9914 8.65012 41.8111 9.10067 41.8111 9.64133C41.8111 10.0018 41.9013 10.3622 41.9914 10.5424C42.1716 10.8128 42.3518 10.993 42.7122 11.1732C43.0727 11.3534 43.5232 11.6237 44.2441 11.8941C45.4155 12.3446 46.2265 12.7952 46.6771 13.2457C47.2177 13.7864 47.398 14.4172 47.398 15.138Z" fill="white"/>
<path d="M55.9583 15.138C55.9583 16.1292 55.5978 16.8501 54.8769 17.3908C54.1561 17.9314 53.255 18.2018 51.9934 18.2018C50.6418 18.2018 49.6506 18.0215 48.9297 17.6611V16.3996C49.3802 16.5798 49.9209 16.76 50.3714 16.8501C50.822 16.9402 51.4528 17.0303 51.9934 17.0303C52.8945 17.0303 53.5253 16.8501 53.8857 16.5798C54.3363 16.2194 54.5165 15.7688 54.5165 15.2281C54.5165 14.8677 54.4264 14.5073 54.2462 14.327C54.066 14.0567 53.7956 13.8765 53.4352 13.6062C53.0747 13.4259 52.5341 13.1556 51.8132 12.8853C50.822 12.5248 50.011 12.0743 49.6506 11.5336C49.2 10.993 49.0198 10.3622 49.0198 9.55122C49.0198 8.74023 49.3802 8.01935 50.011 7.47869C50.6418 6.93803 51.5429 6.75781 52.5341 6.75781C53.6154 6.75781 54.6066 6.93803 55.5978 7.38858L55.2374 8.4699C54.3363 8.10946 53.4352 7.92924 52.5341 7.92924C51.8132 7.92924 51.3627 8.10946 50.9121 8.37979C50.5517 8.65012 50.3714 9.10067 50.3714 9.64133C50.3714 10.0018 50.4616 10.3622 50.5517 10.5424C50.7319 10.8128 50.9121 10.993 51.2725 11.1732C51.633 11.3534 52.0835 11.6237 52.8044 11.8941C53.9758 12.3446 54.7868 12.7952 55.2374 13.2457C55.6879 13.7864 55.9583 14.4172 55.9583 15.138Z" fill="white"/>
<path d="M67.222 12.3448C67.222 14.147 66.6814 15.5888 65.6902 16.58C64.699 17.5712 63.2572 18.1118 61.3649 18.1118H57.7605V7.02832H61.5451C63.3473 7.02832 64.699 7.47887 65.6902 8.37997C66.6814 9.28107 67.222 10.6327 67.222 12.3448ZM64.1583 12.4349C64.1583 11.4437 63.9781 10.6327 63.5275 10.1822C63.1671 9.73162 62.5363 9.46129 61.7253 9.46129H60.8242V15.6789H61.455C62.3561 15.6789 62.9869 15.4085 63.4374 14.8679C63.9781 14.3272 64.1583 13.5162 64.1583 12.4349Z" fill="white"/>
<path d="M73.1693 18.292C71.7276 18.292 70.6462 17.9315 69.8352 17.1205C69.0243 16.3997 68.6638 15.3183 68.6638 13.8766C68.6638 12.4348 69.0243 11.3535 69.7451 10.5425C70.466 9.73153 71.5473 9.37109 72.899 9.37109C74.1605 9.37109 75.1517 9.73153 75.8726 10.3623C76.5935 10.9931 76.9539 11.9843 76.9539 13.2458V14.5975H71.6374C71.6374 15.048 71.8177 15.4085 72.1781 15.7689C72.5385 16.0392 72.9891 16.2194 73.5298 16.2194C74.0704 16.2194 74.521 16.1293 74.9715 16.0392C75.4221 15.9491 75.8726 15.7689 76.4133 15.4986V17.6612C75.9627 17.9315 75.5122 18.0216 74.9715 18.1118C74.4308 18.2019 73.8902 18.292 73.1693 18.292ZM72.9891 11.4436C72.6287 11.4436 72.3583 11.5337 72.088 11.8041C71.8177 11.9843 71.7276 12.3447 71.6374 12.7953H74.1605C74.1605 12.3447 74.0704 12.0744 73.8001 11.8041C73.71 11.5337 73.4396 11.4436 72.9891 11.4436Z" fill="white"/>
<path d="M85.2441 15.499C85.2441 16.4001 84.9737 17.121 84.343 17.5715C83.7122 18.0221 82.8111 18.2924 81.6397 18.2924C81.0089 18.2924 80.4682 18.2924 80.0177 18.2023C79.5671 18.1122 79.0265 18.0221 78.5759 17.8419V15.499C79.0265 15.6792 79.5671 15.8595 80.1078 16.0397C80.6485 16.1298 81.099 16.2199 81.5496 16.2199C82.1803 16.2199 82.5408 16.0397 82.5408 15.7693C82.5408 15.5891 82.4507 15.499 82.2704 15.4089C82.0902 15.3188 81.5496 15.0485 80.7386 14.688C79.9276 14.3276 79.3869 13.9671 79.1166 13.6067C78.8463 13.1562 78.666 12.7056 78.666 12.0748C78.666 11.2638 78.9364 10.6331 79.5671 10.1825C80.1979 9.73198 81.0089 9.55176 82.1803 9.55176C82.721 9.55176 83.2616 9.64187 83.8023 9.73198C84.343 9.82209 84.7935 10.0023 85.3342 10.2726L84.5232 12.1649C84.1627 11.9847 83.7122 11.8045 83.2616 11.7144C82.8111 11.6243 82.4507 11.5342 82.1803 11.5342C81.7298 11.5342 81.4594 11.6243 81.4594 11.8946C81.4594 12.0748 81.5496 12.1649 81.7298 12.2551C81.91 12.3452 82.3605 12.5254 83.1715 12.8858C83.8023 13.1562 84.2529 13.3364 84.5232 13.6067C84.7935 13.877 85.0638 14.1474 85.1539 14.4177C85.1539 14.5979 85.2441 15.0485 85.2441 15.499Z" fill="white"/>
<path d="M86.866 7.38876C86.866 6.93821 86.9561 6.57777 87.2264 6.39755C87.4967 6.21733 87.8572 6.03711 88.3978 6.03711C88.9385 6.03711 89.389 6.12722 89.5693 6.39755C89.8396 6.57777 89.9297 6.93821 89.9297 7.38876C89.9297 8.28986 89.389 8.6503 88.3077 8.6503C87.3165 8.74041 86.866 8.28986 86.866 7.38876ZM89.8396 18.1118H86.866V9.55139H89.8396V18.1118Z" fill="white"/>
<path d="M100.022 9.55131V10.9931L98.8505 11.4436C99.0307 11.714 99.1208 12.0744 99.1208 12.4348C99.1208 13.3359 98.7604 14.0568 98.1296 14.5975C97.4989 15.1381 96.5077 15.3183 95.2461 15.3183C94.8857 15.3183 94.7055 15.3183 94.5252 15.2282C94.4351 15.3183 94.4351 15.4986 94.4351 15.5887C94.4351 15.7689 94.5252 15.859 94.7956 15.9491C95.0659 16.0392 95.3362 16.0392 95.6967 16.0392H97.1384C99.0307 16.0392 100.022 16.8502 100.022 18.4722C100.022 19.5535 99.5714 20.3645 98.6703 20.9052C97.7692 21.4458 96.5077 21.8063 94.8857 21.8063C93.7143 21.8063 92.7231 21.626 92.0923 21.1755C91.4615 20.815 91.1011 20.1843 91.1011 19.4634C91.1011 18.4722 91.7318 17.7513 92.9934 17.481C92.7231 17.3909 92.5428 17.2107 92.2725 16.9403C92.0923 16.67 92.0022 16.4898 92.0022 16.2194C92.0022 15.9491 92.0923 15.6788 92.1824 15.4986C92.3626 15.3183 92.6329 15.048 93.0835 14.7777C92.6329 14.5975 92.2725 14.237 92.0022 13.8766C91.7318 13.426 91.6417 12.9755 91.6417 12.3447C91.6417 11.4436 92.0022 10.7227 92.6329 10.1821C93.2637 9.64142 94.1648 9.37109 95.3362 9.37109C95.5165 9.37109 95.7868 9.37109 96.1472 9.4612C96.5077 9.4612 96.778 9.55131 96.9582 9.55131H100.022ZM93.534 19.1931C93.534 19.4634 93.6241 19.6436 93.8945 19.8238C94.1648 20.0041 94.5253 20.0041 94.9758 20.0041C95.6967 20.0041 96.2373 19.914 96.6879 19.7337C97.1384 19.5535 97.3187 19.2832 97.3187 19.0129C97.3187 18.7425 97.2285 18.6524 96.9582 18.5623C96.6879 18.4722 96.3274 18.3821 95.7868 18.3821H94.6154C94.2549 18.3821 94.0747 18.4722 93.8044 18.5623C93.6242 18.7425 93.534 18.9227 93.534 19.1931ZM94.4351 12.3447C94.4351 13.2458 94.7055 13.6964 95.3362 13.6964C95.6066 13.6964 95.8769 13.6063 95.967 13.3359C96.1472 13.1557 96.2373 12.7953 96.2373 12.3447C96.2373 11.4436 95.967 10.9931 95.3362 10.9931C94.7956 10.9931 94.4351 11.4436 94.4351 12.3447Z" fill="white"/>
<path d="M106.69 18.1122V13.4265C106.69 12.8858 106.6 12.4353 106.42 12.1649C106.24 11.8946 105.969 11.7144 105.609 11.7144C105.068 11.7144 104.708 11.8946 104.527 12.3452C104.347 12.7056 104.167 13.4265 104.167 14.4177V18.2023H101.193V9.64187H103.446L103.807 10.7232H103.987C104.257 10.3627 104.618 10.0023 105.068 9.82209C105.519 9.64187 106.059 9.55176 106.6 9.55176C107.591 9.55176 108.312 9.82209 108.853 10.3627C109.393 10.9034 109.664 11.7144 109.664 12.7056V18.2924H106.69V18.1122Z" fill="white"/>
<path d="M119.125 18.1118L117.774 14.5976H113.358L112.007 18.1118H110.745L115.161 7.02832H116.242L120.567 18.1118H119.125ZM117.323 13.4261L116.062 10.0019C115.881 9.5514 115.701 9.01074 115.521 8.37997C115.431 8.83052 115.251 9.37118 115.07 10.0019L113.809 13.4261H117.323Z" fill="white"/>
<path d="M128.587 18.1121L127.055 13.2462C126.965 12.9758 126.785 12.255 126.514 11.2638H126.424C126.244 12.1649 126.064 12.7956 125.884 13.3363L124.352 18.2022H122.91L120.657 9.91211H122.009C122.55 11.9846 122.91 13.6066 123.27 14.6879C123.541 15.7693 123.721 16.4901 123.721 16.8506H123.811C123.901 16.5802 123.991 16.2198 124.081 15.7693C124.172 15.3187 124.352 14.9583 124.442 14.6879L125.974 9.91211H127.325L128.767 14.6879C129.037 15.589 129.218 16.3099 129.308 16.8506H129.398C129.398 16.6704 129.488 16.4 129.578 16.0396C129.668 15.6791 130.209 13.6066 131.11 9.91211H132.372L130.119 18.2022H128.587V18.1121Z" fill="white"/>
<path d="M138.949 18.1119L138.679 16.9405H138.589C138.138 17.4812 137.778 17.8416 137.327 18.0218C136.877 18.202 136.426 18.2922 135.796 18.2922C134.985 18.2922 134.354 18.1119 133.903 17.6614C133.453 17.2108 133.182 16.6702 133.182 15.8592C133.182 14.1471 134.534 13.3361 137.237 13.246L138.679 13.1559V12.6152C138.679 11.9845 138.499 11.4438 138.229 11.1735C137.958 10.9031 137.508 10.7229 136.877 10.7229C136.156 10.7229 135.435 10.9031 134.534 11.3537L134.174 10.3625C134.624 10.1823 134.985 10.002 135.525 9.82182C135.976 9.73171 136.516 9.6416 136.967 9.6416C137.958 9.6416 138.679 9.82182 139.13 10.2724C139.58 10.7229 139.851 11.4438 139.851 12.3449V18.0218H138.949V18.1119ZM136.066 17.2108C136.877 17.2108 137.418 17.0306 137.868 16.5801C138.319 16.1295 138.499 15.5889 138.499 14.7779V14.057L137.237 14.1471C136.246 14.1471 135.525 14.3273 135.075 14.5976C134.624 14.868 134.444 15.3185 134.444 15.8592C134.444 16.3097 134.624 16.6702 134.894 16.8504C135.255 17.1207 135.615 17.2108 136.066 17.2108Z" fill="white"/>
<path d="M146.248 9.6416C146.609 9.6416 146.969 9.6416 147.24 9.73171L147.059 10.9031C146.699 10.813 146.429 10.813 146.158 10.813C145.528 10.813 144.897 11.0834 144.446 11.624C143.996 12.1647 143.725 12.8856 143.725 13.6965V18.1119H142.464V9.82182H143.455L143.635 11.3537H143.725C143.996 10.813 144.446 10.3625 144.807 10.0922C145.257 9.82182 145.708 9.6416 146.248 9.6416Z" fill="white"/>
<path d="M154.449 17.0307C153.818 17.8417 152.917 18.2922 151.745 18.2922C150.664 18.2922 149.853 17.9318 149.222 17.2109C148.591 16.49 148.321 15.4087 148.321 14.0571C148.321 12.7054 148.591 11.6241 149.222 10.9032C149.853 10.1823 150.664 9.73179 151.745 9.73179C152.827 9.73179 153.728 10.1823 154.358 10.9933H154.449L154.358 10.3626V9.8219V6.30762H155.62V18.112H154.629L154.449 17.0307ZM151.925 17.2109C152.827 17.2109 153.367 16.9406 153.818 16.49C154.178 16.0395 154.358 15.2285 154.358 14.2373V13.967C154.358 12.7955 154.178 11.9845 153.728 11.4439C153.367 10.9032 152.736 10.723 151.835 10.723C151.114 10.723 150.574 10.9933 150.123 11.6241C149.763 12.1648 149.492 12.9757 149.492 14.0571C149.492 15.1384 149.673 15.9494 150.033 16.49C150.574 16.9406 151.114 17.2109 151.925 17.2109Z" fill="white"/>
<path d="M163.64 15.8592C163.64 16.6702 163.369 17.2108 162.739 17.6614C162.198 18.1119 161.387 18.2922 160.306 18.2922C159.224 18.2922 158.323 18.1119 157.692 17.7515V16.5801C158.053 16.7603 158.503 16.9405 158.954 17.0306C159.404 17.1207 159.855 17.2108 160.306 17.2108C160.936 17.2108 161.477 17.1207 161.837 16.9405C162.198 16.7603 162.378 16.3998 162.378 15.9493C162.378 15.5889 162.198 15.3185 161.928 15.1383C161.657 14.868 161.117 14.5976 160.306 14.3273C159.495 14.057 158.954 13.7867 158.684 13.6064C158.323 13.4262 158.143 13.1559 157.963 12.8856C157.782 12.6152 157.692 12.2548 157.692 11.8943C157.692 11.2636 157.963 10.7229 158.503 10.2724C159.044 9.82182 159.765 9.6416 160.756 9.6416C161.657 9.6416 162.558 9.82182 163.369 10.1823L162.919 11.1735C162.108 10.813 161.297 10.6328 160.666 10.6328C160.035 10.6328 159.585 10.7229 159.314 10.9031C159.044 11.0834 158.864 11.3537 158.864 11.7141C158.864 11.8943 158.954 12.1647 159.044 12.2548C159.134 12.435 159.314 12.5251 159.585 12.7053C159.855 12.8856 160.306 13.0658 161.026 13.3361C162.018 13.6965 162.648 14.057 163.009 14.4174C163.459 14.868 163.64 15.3185 163.64 15.8592Z" fill="white"/>
</g>
<defs>
<clipPath id="clip0_623_869">
<rect width="164" height="25" fill="white"/>
</clipPath>
</defs>
</svg>
